<svg xmlns="http://www.w3.org/2000/svg" enable-background="new 206 -206 512 512" viewBox="206 -206 512 512" id="MarketVision"><path d="M358 76h-39c-5.5 0-10 4.5-10 10v157c0 5.5 4.5 10 10 10h39c5.5 0 10-4.5 10-10V86C368 80.5 363.5 76 358 76zM348 233h-19V96h19V233zM279 162h-39c-5.5 0-10 4.5-10 10v71c0 5.5 4.5 10 10 10h39c5.5 0 10-4.5 10-10v-71C289 166.5 284.5 162 279 162zM269 233h-19v-51h19V233zM239.2 113.3l185-185L462-33.8c3.9 3.9 10.2 3.9 14.1 0l115.3-115.3-.1 44.1c0 5.5 4.4 9.9 9.9 9.9 0 0 0 0 .1 0h0c5.5 0 10-4.4 10-9.9 0 0 0 0 0 0l.1-68.4c0-2.6-1.1-5.1-2.9-6.9-1.9-1.8-4.4-2.8-7.1-2.8h0l-68.4 0c-5.5.2-9.9 4.8-9.7 10.3.2 5.3 4.4 9.6 9.7 9.7h0l44.3-.2L469.1-55l-37.9-37.9c-3.9-3.9-10.2-3.9-14.1 0L225 99.2c-4 3.8-4.1 10.2-.2 14.1s10.2 4.1 14.1.2C239 113.5 239.1 113.4 239.2 113.3L239.2 113.3zM603 102.5V-46.9c.1-5.5-4.3-10-9.8-10.1 0 0 0 0 0 0h-38.7c-5.5 0-10.5 4.6-10.5 10.1V91.7c-6.4.5-12.7 1.4-19 2.8V5.2c0-5.6-4.5-10.1-10-10.2h-38.7c-5.6.1-10.2 4.6-10.3 10.2v115.8c-6 4.5-13 9.4-19 14.8V62.6c0-5.5-4.7-9.6-10.2-9.6h-38.7c-5.5 0-10.1 4-10.1 9.6v180.5c.1 5.5 4.6 10 10.1 9.9h38.7c5.6 0 10.1-4.4 10.2-9.9v-4.2c27 22.5 63.5 44.4 104.6 44.4 34.1 0 70.6-15.7 105.7-45.3 15.8-13.3 30.1-28.3 42.7-44.7 2.5-3.5 2.5-8.3-.1-11.8C698.2 179.1 659 126.1 603 102.5zM564-37h19V95.7c-6.2-1.7-12.6-2.9-19-3.5V-37zM486 15h19v85.5c-6 2.4-12 5.2-19 8.5V15zM408 73h19v81.3c-6.8 6.4-13.2 13.3-19 20.7V73zM427 233h-19v-33.3c5.8 7.4 12.2 14.3 19 20.7V233zM551.5 263.3c-23.5 0-60.9-9-105.6-52.1-7.8-7.5-15.2-15.5-22.1-23.9 6.4-7.8 13.3-15.3 20.5-22.3 11.6-11.5 24.4-21.7 38-30.6 11.2-7.4 23.4-13.3 36.1-17.5 10.7-3.5 21.8-5.4 33-5.5.9 0 1.7 0 2.4 0 .1 0 .2 0 .3 0 11.8.4 23.4 2.7 34.5 6.8h0c43.5 15.7 78.4 54.3 90.5 69C663.7 206.1 611.7 263.3 551.5 263.3z" fill="#595bd4" class="color000000 svgShape"></path><path d="M551.5,120.8c-36.7,0-66.5,29.8-66.5,66.5s29.8,66.5,66.5,66.5s66.5-29.8,66.5-66.5l0,0
		C618,150.6,588.2,120.9,551.5,120.8z M551.5,233.8c-25.7,0-46.5-20.8-46.5-46.5s20.8-46.5,46.5-46.5s46.5,20.8,46.5,46.5
		C598,213,577.2,233.8,551.5,233.8L551.5,233.8z" fill="#595bd4" class="color000000 svgShape"></path></svg>