<svg xmlns="http://www.w3.org/2000/svg" enable-background="new 0 0 64 64" viewBox="0 0 64 64" id="Negotiations"><path d="M14.41,52.22H3.31c-0.28,0-0.49,0.22-0.49,0.49v10.79c0,0.28,0.22,0.49,0.49,0.49h11.1c0.28,0,0.49-0.22,0.49-0.49V52.72
		C14.9,52.44,14.69,52.22,14.41,52.22z" fill="#34a853" class="color000000 svgShape"></path><path d="M20.83 42.88h-7.2V32.13l5.56 4.02c.08.06.19.09.29.09h7.45c1.34 0 2.43-1.09 2.43-2.43 0-1.34-1.09-2.43-2.43-2.43h-5.96l-6.54-5.26c-.59-.47-1.32-.73-2.07-.73h-4.5c-2.67 0-4.83 2.17-4.83 4.83v14.47c0 2.53 2.06 4.6 4.59 4.61l10.26.05 1.02 12.59C19 63.09 19.98 64 21.13 64c1.19 0 2.18-.93 2.24-2.11l.88-15.39c.06-.96-.28-1.86-.93-2.55C22.66 43.25 21.77 42.88 20.83 42.88zM5.48 18.12c0 2.53 2.07 4.59 4.6 4.59s4.59-2.06 4.59-4.59c0-2.53-2.06-4.59-4.59-4.59S5.48 15.59 5.48 18.12zM63.16 52.22H52.05c-.28 0-.49.22-.49.49v10.79c0 .28.22.49.49.49h11.11c.28 0 .49-.22.49-.49V52.72C63.65 52.44 63.43 52.22 63.16 52.22z" fill="#34a853" class="color000000 svgShape"></path><path d="M63.43,44.69V30.22c0-2.67-2.18-4.83-4.83-4.83h-4.5c-0.75,0-1.49,0.26-2.07,0.73l-6.55,5.26h-5.95
		c-1.34,0-2.43,1.09-2.43,2.43c0,1.34,1.09,2.43,2.43,2.43h7.44c0.11,0,0.21-0.03,0.3-0.09l5.56-4.02v10.75h-7.2
		c-0.96,0-1.84,0.37-2.49,1.07c-0.66,0.69-0.98,1.6-0.94,2.55l0.88,15.39c0.07,1.18,1.05,2.11,2.24,2.11c1.16,0,2.14-0.91,2.24-2.06
		l1.02-12.59l10.26-0.05C61.38,49.29,63.43,47.22,63.43,44.69z" fill="#34a853" class="color000000 svgShape"></path><circle cx="56.39" cy="18.12" r="4.59" fill="#34a853" class="color000000 svgShape"></circle><path d="M20.19 39.67c0 .43.35.79.79.79h24.68c.43 0 .79-.35.79-.79 0-.43-.35-.79-.79-.79H20.98C20.55 38.88 20.19 39.23 20.19 39.67zM20.63 19.29h.61v3.02c0 .3.18.58.45.71.11.05.22.07.33.07.18 0 .36-.06.5-.18l4.36-3.62h9.8c1.46 0 2.64-1.19 2.64-2.64v-.89h.41l4.36 3.62c.14.12.32.18.5.18.12 0 .23-.02.33-.07.27-.13.45-.41.45-.71v-3.02H46c1.46 0 2.64-1.19 2.64-2.64l.01-8.46c0-1.46-1.19-2.64-2.65-2.64H29.95c-1.46 0-2.64 1.19-2.64 2.64v.89h-6.67c-1.46 0-2.64 1.19-2.64 2.64v8.45C17.99 18.1 19.18 19.29 20.63 19.29zM36.69 7.12c.59 0 1.07.48 1.07 1.07v8.45c0 .59-.48 1.07-1.07 1.07H26.6c-.07 0-.13.02-.19.04-.03.01-.06.01-.08.02-.06.02-.11.06-.17.1-.02.01-.04.02-.06.04l-.04.03c-.01.01-.02.01-.02.02l-3.22 2.67v-2.12c0-.22-.09-.42-.23-.56-.14-.14-.34-.23-.56-.23h-1.4c-.59 0-1.07-.48-1.07-1.07V8.19c0-.59.48-1.07 1.07-1.07H36.69zM29.95 3.59H46c.59 0 1.08.48 1.08 1.07l-.01 8.46c0 .59-.48 1.07-1.07 1.07h-1.4c-.43 0-.79.35-.79.79 0 0 0 0 0 0v2.12l-3.28-2.73c-.03-.02-.07-.04-.1-.06-.04-.03-.08-.06-.13-.07-.04-.01-.08-.02-.12-.02-.05-.01-.1-.03-.16-.03h-.69V8.19c0-1.46-1.19-2.64-2.64-2.64h-7.81V4.65C28.88 4.06 29.36 3.59 29.95 3.59z" fill="#34a853" class="color000000 svgShape"></path><path d="M22.7 12.6h.97c.43 0 .79-.35.79-.79 0-.43-.35-.79-.79-.79H22.7c-.43 0-.79.35-.79.79C21.91 12.25 22.27 12.6 22.7 12.6zM27.61 12.6h.97c.43 0 .79-.35.79-.79 0-.43-.35-.79-.79-.79h-.97c-.43 0-.79.35-.79.79C26.82 12.25 27.17 12.6 27.61 12.6zM32.52 12.6h.97c.43 0 .79-.35.79-.79 0-.43-.35-.79-.79-.79h-.97c-.43 0-.79.35-.79.79C31.73 12.25 32.08 12.6 32.52 12.6zM11.59 5.62C11.59 2.52 9.07 0 5.97 0 2.88 0 .35 2.52.35 5.62c0 3.1 2.53 5.62 5.62 5.62C9.07 11.24 11.59 8.72 11.59 5.62zM5.97 6.11c-.03 0-.07 0-.1-.01C4.95 6.06 4.21 5.3 4.21 4.35c0-.8.54-1.48 1.27-1.68V2.32c0-.27.23-.49.49-.49.28 0 .49.23.49.49v.34C7.2 2.88 7.73 3.54 7.73 4.35c0 .28-.22.49-.49.49-.27 0-.49-.22-.49-.49 0-.43-.34-.78-.78-.78-.42 0-.78.34-.78.78s.35.78.78.78c.04 0 .08 0 .11.01.93.05 1.65.82 1.65 1.75 0 .81-.53 1.48-1.27 1.68v.34c0 .27-.22.49-.49.49-.27 0-.49-.23-.49-.49V8.58C4.75 8.37 4.21 7.69 4.21 6.89c0-.28.23-.49.49-.49.28 0 .49.22.49.49 0 .43.35.78.78.78.43 0 .78-.34.78-.78C6.75 6.46 6.4 6.11 5.97 6.11z" fill="#34a853" class="color000000 svgShape"></path></svg>