<svg xmlns="http://www.w3.org/2000/svg" data-name="Layer 1" viewBox="0 0 512 512" id="ProfitableReturns"><path fill="#fda547" d="M17.5 422.6h59a10 10 0 0 1 10 10v71.9h-79v-71.9a10 10 0 0 1 10-10Z" class="colorfd4755 svgShape"></path><path fill="#fb962b" d="M76.5 422.6h-20v17.9a49 49 0 0 1-49 49v15h79v-71.9a10 10 0 0 0-10-10Z" class="colorfb2b3a svgShape"></path><path fill="#fe8302" d="M143.78 375.5h59a10 10 0 0 1 10 10v119h-79v-119a10 10 0 0 1 10-10Z" class="colorfed402 svgShape"></path><path fill="#fa8000" d="M202.78 375.5h-20v65a49 49 0 0 1-49 49v15h79v-119a10 10 0 0 0-10-10Z" class="colorfac600 svgShape"></path><path fill="#53d86a" d="M270.06 330.5h59a10 10 0 0 1 10 10v164h-79v-164a10 10 0 0 1 10-10Z" class="color09a76d svgShape"></path><path fill="#02901b" d="M329.06 330.5h-20v110a49 49 0 0 1-49 49v15h79v-164a10 10 0 0 0-10-10Z" class="color02905d svgShape"></path><path fill="#fe9526" d="M425.83 293a7.5 7.5 0 0 1-7.5-7.5V167.43a7.5 7.5 0 0 1 15 0V285.5a7.5 7.5 0 0 1-7.5 7.5Z" class="colord77f4a svgShape"></path><path fill="#53d86a" d="M450.95 199h24.71v25.53a25.11 25.11 0 0 1-25.11 25.11h-24.72v-25.57A25.11 25.11 0 0 1 450.95 199Z" class="color09a76d svgShape"></path><path fill="#02901b" d="M460.66 199v25.53a25.12 25.12 0 0 1-25.12 25.11h15a25.12 25.12 0 0 0 25.12-25.11V199Z" class="color02905d svgShape"></path><path fill="#53d86a" d="M425.84 249.56h-24.71a25.11 25.11 0 0 1-25.11-25.11v-25.49h24.7a25.11 25.11 0 0 1 25.12 25.11v25.49Z" class="color09a76d svgShape"></path><path fill="#02901b" d="M400.72 199h-15a25.11 25.11 0 0 1 25.11 25.11v25.49h15v-25.53A25.11 25.11 0 0 0 400.72 199Z" class="color02905d svgShape"></path><ellipse cx="425.83" cy="87.47" fill="#fe8302" rx="78.67" ry="79.97" class="colorfed402 svgShape"></ellipse><path fill="#fa8000" d="M464 17.53a80.57 80.57 0 0 1 10.5 39.94c0 44.16-35.22 80-78.67 80a77.32 77.32 0 0 1-38.14-10 78.4 78.4 0 0 0 68.14 40c43.45 0 78.67-35.8 78.67-80A80.15 80.15 0 0 0 464 17.53Z" class="colorfac600 svgShape"></path><path fill="#53d86a" d="M456 63.05h-8.87a31.21 31.21 0 0 0-3.52-8.57H456a7.5 7.5 0 0 0 0-15h-60.31a7.5 7.5 0 0 0 0 15h21.64a15.67 15.67 0 0 1 13.87 8.57h-35.51a7.5 7.5 0 0 0 0 15h35.51a15.67 15.67 0 0 1-13.87 8.57h-21.64a7.51 7.51 0 0 0-5.41 12.7l44.83 46.62a7.5 7.5 0 0 0 10.82-10.4l-32.62-33.92h4a30.81 30.81 0 0 0 29.78-23.57H456a7.5 7.5 0 0 0 0-15Z" class="color09a76d svgShape"></path><path fill="#02901b" d="M440.52 148.24a7.5 7.5 0 0 0 5.41-12.7l-9.32-9.68a77.81 77.81 0 0 1-14.19 6.88l12.69 13.2a7.5 7.5 0 0 0 5.41 2.3Z" class="color02905d svgShape"></path><path fill="#2689fe" d="M396.33 285.5h59a10 10 0 0 1 10 10v209h-79v-209a10 10 0 0 1 10-10Z" class="color26a6fe svgShape"></path><path fill="#167ffc" d="M455.33 285.5h-20v155a49 49 0 0 1-49 49v15h79v-209a10 10 0 0 0-10-10Z" class="color0593fc svgShape"></path><path fill="#595bd4" d="M340.22 152.21v-.32c0-.11 0-.27-.07-.4s-.06-.25-.09-.37 0-.23-.08-.34-.09-.24-.13-.36l-.12-.34c-.05-.11-.1-.22-.16-.33s-.1-.22-.16-.33-.12-.21-.18-.32-.12-.21-.19-.31-.17-.23-.26-.35l-.18-.24a8 8 0 0 0-1.05-1l-.22-.16-.37-.28-.29-.17a3.79 3.79 0 0 0-.34-.2c-.1-.06-.21-.1-.31-.15a4 4 0 0 0-.36-.17l-.31-.11-.38-.13a3 3 0 0 0-.32-.09l-.39-.09-.38-.06H291.18a7.5 7.5 0 0 0 0 15h23.47l-65.23 65.11L217.7 194a11.3 11.3 0 0 0-16 0L125 270.73l-32.57-32.58a11.29 11.29 0 0 0-16 0L2.2 312.45a7.5 7.5 0 1 0 10.6 10.6l71.66-71.66L117 284a11.26 11.26 0 0 0 16 0l76.74-76.75 31.72 31.73a11.3 11.3 0 0 0 16 0l67.86-67.88v23.48a7.5 7.5 0 0 0 15 0V153a6.28 6.28 0 0 0-.1-.79zM504.5 512H7.5a7.5 7.5 0 0 1 0-15h497a7.5 7.5 0 0 1 0 15z" class="color7a6d79 svgShape"></path></svg>