<?xml version="1.0" encoding="utf-8"?>
<!-- Svg Vector Icons : http://www.onlinewebfonts.com/icon -->
<!DOCTYPE svg PUBLIC "-//W3C//DTD SVG 1.1//EN" "http://www.w3.org/Graphics/SVG/1.1/DTD/svg11.dtd">
<svg version="1.1" xmlns="http://www.w3.org/2000/svg" xmlns:xlink="http://www.w3.org/1999/xlink" x="0px" y="0px" viewBox="0 0 1000 1000" enable-background="new 0 0 1000 1000" xml:space="preserve">
<metadata> Svg Vector Icons : http://www.onlinewebfonts.com/icon </metadata>
<g><path d="M418.3,786.2h40.8c22.6,0,40.8-16.9,40.8-37.7v-537c0-20.8-18.3-37.7-40.8-37.7h-40.8c-22.5,0-40.8,16.9-40.8,37.7v537C377.5,769.4,395.8,786.2,418.3,786.2z M622.5,786.3h40.8c22.6,0,40.8-18.3,40.8-40.8V337.1c0-22.6-18.3-40.8-40.8-40.8h-40.8c-22.6,0-40.8,18.3-40.8,40.8v408.3C581.7,768,599.9,786.3,622.5,786.3z M214.2,786.3H255c22.6,0,40.8-18.3,40.8-40.8V459.7c0-22.5-18.3-40.8-40.8-40.8h-40.8c-22.6,0-40.8,18.3-40.8,40.8v285.8C173.3,768,191.6,786.3,214.2,786.3z M949.2,826.7H91.7V132.5c0-21.3-22.2-40.8-43.4-40.8c-21.1,0-38.3,17.3-38.3,38.6v739.5c0,21.3,17.1,38.6,38.3,38.6h903.4c21.1,0,38.3-17.3,38.3-38.6S970.3,826.7,949.2,826.7z M826.7,786.3h40.8c22.5,0,40.8-18.3,40.8-40.8V582.1c0-22.6-18.3-40.8-40.8-40.8h-40.8c-22.6,0-40.8,18.3-40.8,40.8v163.3C785.8,768,804.1,786.3,826.7,786.3z"/></g>
</svg>