<?xml version="1.0" encoding="utf-8"?>
<!-- Svg Vector Icons : http://www.onlinewebfonts.com/icon -->
<!DOCTYPE svg PUBLIC "-//W3C//DTD SVG 1.1//EN" "http://www.w3.org/Graphics/SVG/1.1/DTD/svg11.dtd">
<svg version="1.1" xmlns="http://www.w3.org/2000/svg" xmlns:xlink="http://www.w3.org/1999/xlink" x="0px" y="0px" viewBox="0 0 1000 1000" enable-background="new 0 0 1000 1000" xml:space="preserve">
<metadata> Svg Vector Icons : http://www.onlinewebfonts.com/icon </metadata>
<g><g transform="translate(0.000000,511.000000) scale(0.100000,-0.100000)"><path d="M4847.9,3639.4c-45.1-16.4-84.1-30.8-88.2-30.8c-2.1,0-14.4-24.6-24.6-53.3c-16.4-39-12.3-86.1,12.3-174.3l32.8-118.9l244.1-6.2l242-6.1l-502.5-1240.8C4486.9,1326,4253.1,764,4242.8,757.9c-10.3-6.1-229.7-28.7-486.1-49.2c-258.4-18.5-502.5-41-543.5-47.2l-77.9-12.3v332.2v330.2h67.7c36.9,0,77.9,10.3,92.3,24.6c34.9,34.9,34.9,1043.9,0,1078.8c-14.4,14.4-55.4,24.6-92.3,24.6h-67.7v160c0,182.5-20.5,268.7-86.1,365.1c-55.4,80-174.3,151.8-250.2,151.8c-51.3,0-53.3-6.2-53.3-102.5c0-86.1,6.1-102.5,36.9-102.5c20.5,0,59.5-24.6,88.2-53.3c45.1-47.2,49.2-69.7,49.2-229.7v-178.4l-71.8-6.1c-39-4.1-84.1-16.4-96.4-28.7c-39-30.8-39-1048,0-1078.8c12.3-12.3,57.4-24.6,96.4-28.7l71.8-6.1V973.2V645.1l-123.1-14.4c-67.7-8.2-414.3-43.1-769.1-77.9c-752.7-73.8-881.9-96.4-1080.8-194.8C655.8,214.4,530.7,38,514.3-253.2L504-431.7l139.5,82C938.8-167.1,1248.5-83,1607.4-83c457.4,0,861.4-149.7,1212.1-451.2c342.5-295.3,570.2-724,633.7-1195.7l12.3-96.4h1039.8h1039.8v322c0,235.8,10.3,371.2,36.9,498.4C5727.7-325,6201.5,290.2,6816.7,597.9C7386.9,885,8057.5,930.1,8642,723c424.5-151.8,836.8-455.3,1105.4-812.2l73.8-98.4l41,67.7c55.4,92.3,53.3,123.1-30.8,281c-94.3,180.5-287.1,389.7-510.7,553.8L9144.5,846V2052v1208h80h82l24.6,110.7c28.7,135.4,0,211.3-104.6,262.5c-67.7,34.9-213.3,36.9-2184.2,36.9C5256,3668.1,4917.6,3664,4847.9,3639.4z M8734.3,2162.7c0-603-2.1-1097.2-6.2-1097.2c-2.1,0-106.7,24.6-229.7,53.3c-457.4,104.6-1005,88.2-1433.6-47.2C6398.3,862.5,5789.2,341.5,5502.1-263.5l-59.5-125.1h-680.9c-402-2.1-683,6.2-683,16.4s80,221.5,176.4,467.6c96.4,246.1,391.7,996.7,654.2,1667.4s502.5,1281.8,533.2,1359.8L5498,3260h1618.2h1618.2V2162.7z"/><path d="M7719.1,499.4c-342.5-45.1-545.5-104.6-783.5-233.8C6431.2-5.1,6078.4-462.4,5941-1020.3c-63.6-258.4-63.6-662.4,0-916.8c207.2-826.5,918.8-1439.7,1747.4-1505.4c598.9-49.2,1136.2,137.4,1554.6,537.3c268.7,256.4,471.7,609.1,562,968c59.5,242,63.6,642,8.2,879.9c-174.3,765-773.2,1357.7-1530,1517.7C8139.6,489.2,7819.6,513.8,7719.1,499.4z M8211.4-433.7c371.2-114.9,680.9-473.8,750.6-867.5c59.5-348.7-73.8-728.1-342.5-978.3c-215.4-198.9-449.2-289.2-746.5-289.2c-326.1,0-584.5,112.8-810.1,354.8c-408.1,443-385.6,1109.6,51.3,1521.8c186.6,178.4,377.4,270.7,625.5,309.7C7846.3-368.1,8078-392.7,8211.4-433.7z"/><path d="M7907.8-722.9c-16.4-24.6-34.9-71.8-43.1-102.5c-8.2-32.8-26.7-57.4-45.1-57.4c-16.4,0-86.1-18.5-155.9-43.1l-123.1-41l-77.9,53.3c-88.2,61.5-127.2,53.3-203-45.1c-51.3-63.6-41-121,32.8-180.5c51.3-43.1,51.3-43.1,18.4-139.5c-18.4-53.3-32.8-129.2-32.8-166.1c0-59.5-10.3-71.8-82-100.5c-98.4-39-114.8-73.8-84.1-180.5c28.7-96.4,63.6-114.9,166.1-88.2c71.8,20.5,77.9,18.5,198.9-94.3c125.1-112.8,125.1-114.8,114.8-209.2c-12.3-102.5,4.1-121,127.2-147.7c80-16.4,133.3,20.5,151.8,110.8c12.3,63.6,22.6,69.7,139.5,102.5c69.7,18.5,141.5,45.1,157.9,59.5c22.5,18.4,41,12.3,92.3-28.7c84.1-71.8,160-63.6,221.5,26.7c51.3,77.9,45.1,119-30.8,180.5c-51.3,45.1-51.3,45.1-16.4,143.6c18.4,53.3,32.8,127.2,32.8,162c0,53.3,12.3,67.7,88.2,102.5c100.5,47.2,114.9,92.3,67.7,205.1l-32.8,75.9l-110.8-12.3c-104.6-14.3-114.8-10.3-145.6,34.9c-18.5,28.7-67.7,75.9-112.8,106.7c-77.9,53.3-80,57.4-67.7,153.8c12.3,110.8-4.1,127.2-141.5,153.8C7948.8-675.7,7934.5-679.8,7907.8-722.9z"/><path d="M1191.1-485c-203-59.5-299.4-106.7-467.6-225.6C469.1-889,268.2-1165.9,167.7-1467.4c-71.8-219.5-90.2-598.9-36.9-818.3c135.4-559.9,578.4-1002.9,1134.2-1132.1c155.9-36.9,502.5-43.1,639.9-10.3c594.8,135.4,1031.6,561.9,1171.1,1144.4c53.3,223.5,45.1,576.3-18.5,777.3C2893.3-987.5,2491.3-604,1976.6-472.7C1740.7-413.2,1416.7-417.3,1191.1-485z M1742.8-1108.5c266.6-51.3,498.4-225.6,615.3-463.5c248.2-502.5-59.5-1095.2-621.4-1199.8c-545.5-100.5-1056.2,408.1-963.9,961.9c57.4,346.6,315.8,619.4,660.4,693.2C1578.7-1083.9,1609.5-1083.9,1742.8-1108.5z"/><path d="M1757.1-1414.1c-41-53.3-63.6-61.5-172.3-67.7c-116.9-6.2-127.1-2-178.4,55.4l-53.3,61.5l-71.8-39c-80-43.1-94.3-96.4-43.1-162c24.6-34.9,20.5-53.3-36.9-160c-53.3-98.5-75.9-121-116.9-121c-73.8,0-102.5-36.9-102.5-125.1c0-82,22.6-100.5,125.1-100.5c36.9,0,59.5-10.3,59.5-26.7c0-16.4,28.7-67.7,61.5-114.9c49.2-67.7,57.4-92.3,41-125.1c-39-73.8-24.6-121,53.3-157.9c71.8-34.9,73.8-34.9,110.7,10.3c20.5,24.6,41,53.3,45.1,63.6c6.2,20.5,283,41,283,22.5c0-26.7,84.1-102.5,112.8-102.5c16.4,0,53.3,22.5,86.1,49.2l57.4,49.2l-36.9,75.9c-32.8,67.7-32.8,80-6.2,110.8c16.4,18.5,45.1,67.7,63.6,110.7c24.6,61.5,41,75.9,88.2,75.9c73.8,0,106.7,34.9,106.7,112.8c0,82-32.8,112.8-116.9,112.8c-36.9,0-67.7,8.2-67.7,16.4c0,10.3-28.7,59.5-63.6,112.8c-49.2,75.9-57.4,102.5-41,135.4c39,71.8,26.7,123.1-39,155.9C1822.7-1344.3,1812.5-1346.4,1757.1-1414.1z"/></g></g>
</svg>